<?xml version="1.0" encoding="UTF-8"?>
<svg width="326px" height="51px" viewBox="0 0 326 51" version="1.1" xmlns="http://www.w3.org/2000/svg" xmlns:xlink="http://www.w3.org/1999/xlink">
    <title>ida-logo (1)</title>
    <defs>
        <path d="M30.507548,40.7131744 C33.7780161,40.6721753 36.8802826,40.1938522 39.6261722,39.2718977 C40.3157983,39.0374669 40.974938,38.7809596 41.6014886,38.5044784 C40.837223,40.3683613 39.7144779,41.9252765 38.2521761,43.0816618 C35.3675203,45.2083596 31.9614398,46.6643539 28.2631092,47.2225726 C29.1892687,45.6225558 29.9367142,43.3665531 30.507548,40.7131744 M15.1223666,45.2472562 C15.055086,45.1894369 14.9804466,45.1379252 14.8984483,45.0969261 C13.608553,44.4703755 13.0913334,41.6046424 13.7630882,37.2187881 C16.2335478,38.3320718 18.9247719,39.2109247 21.7526597,39.8164501 C23.8961776,40.2747992 26.033388,40.557588 28.1222404,40.666919 C27.0972625,45.1179513 25.7831883,47.4527985 24.9169505,47.4527985 C24.8591312,47.4527985 24.8076195,47.463311 24.7550566,47.4696186 C21.3069257,47.4464909 18.0396115,46.6538413 15.1223666,45.2472562 M3.18216223,31.0741769 C2.98452546,30.3204239 2.86152811,29.555107 2.8100164,28.7761238 C3.57953829,29.8746899 4.5246205,30.9480257 5.64736554,31.9877213 C7.33884193,33.5540978 9.34884992,34.9543753 11.5911862,36.1538623 C11.1328371,38.7168328 11.0035322,41.0369623 11.2957823,42.9050503 C7.43450654,39.9825491 4.54354316,35.8479458 3.18216223,31.0741769 M31.9645936,24.8549262 C31.9645936,23.9539969 31.9519785,23.0436062 31.9277995,22.1384719 C34.8061478,21.9471427 37.4731929,21.1975947 39.6587612,19.9413397 C41.6792818,23.9434843 42.7652327,28.1621883 42.7568712,32.1454102 C42.7526176,33.299693 42.6516967,34.3982591 42.4719314,35.4326984 C41.4332871,36.0687103 40.2359026,36.6237753 38.8871368,37.0747656 C36.4997267,37.8800303 33.8032463,38.3194567 30.9469745,38.3909423 C31.6344981,34.276313 31.9645936,29.4993903 31.9645936,24.8549262 M22.236239,37.5541399 C19.3673521,36.9381018 16.6593079,36.0287625 14.2056684,34.8744796 C15.0109331,31.2507884 16.5089778,26.8565241 18.8890291,21.9797317 C19.2338421,21.2711829 19.5870653,20.5794542 19.946596,19.8982381 C21.6096884,20.6456835 23.4189058,21.2364913 25.3174803,21.6433287 C26.758757,21.9513477 28.1958286,22.1195492 29.6108238,22.1689584 C29.6350027,23.0372987 29.6497204,23.9329717 29.6497204,24.8549262 C29.6497204,30.30886 29.2123965,34.8334805 28.5816408,38.3688659 C26.5138135,38.2805601 24.3818595,38.0082839 22.236239,37.5541399 M7.22110088,30.2878348 C5.25419453,28.4702073 3.90122367,26.5464026 3.21370001,24.635213 C3.76035491,22.4916951 4.81476809,20.3439721 6.36958076,18.2845549 C7.84554897,16.3323662 9.67894538,14.5725579 11.7856692,13.0608469 C12.3911947,14.1573105 13.243766,15.2285438 14.325512,16.2430091 C15.3546949,17.2080653 16.5531307,18.0806106 17.8840251,18.8469787 C17.5181868,19.5408099 17.1597073,20.2472562 16.8106892,20.9663176 C14.7565283,25.1776628 13.0766158,29.6949245 12.0957908,33.7906312 C10.2665994,32.7593457 8.62137841,31.5829864 7.22110088,30.2878348 M30.3919095,8.76960599 C33.0263656,10.7302048 35.4390059,13.2584837 37.457424,16.2146251 C37.8390312,16.7770489 38.2006644,17.3457802 38.543375,17.9208191 C36.6910559,18.9910012 34.3551575,19.6291157 31.8289811,19.8099323 C31.6155755,15.8140953 31.14356,11.9685884 30.3919095,8.76960599 M25.8031622,19.3789159 C24.1232497,19.0214877 22.5326942,18.5063706 21.0661873,17.8640511 C23.2265254,14.0837223 25.591859,10.7964341 27.9214499,8.35330726 C28.6499727,11.2221942 29.2597031,15.0740087 29.5193642,19.8519827 C28.2914932,19.7994197 27.0415458,19.6438333 25.8031622,19.3789159 M15.9087086,14.5536353 C14.9499601,13.6558597 14.2224885,12.7223414 13.7326017,11.7835667 C15.9024011,10.4779025 18.3055801,9.41402801 20.8611917,8.64450612 C22.3823641,8.18825953 23.9224591,7.84765149 25.4583491,7.61532316 C23.241243,10.0973466 21.0272907,13.2532274 18.9973088,16.8201505 C17.8409234,16.1462933 16.8001766,15.3893865 15.9087086,14.5536353 M10.9278416,7.17379421 C10.8952525,7.290484 10.8626635,7.41032757 10.8374332,7.53332492 C10.6030024,8.62558345 10.6303351,9.7430722 10.9047138,10.8532021 C8.41428031,12.5720113 6.24342963,14.6019932 4.52146672,16.8853286 C3.99583701,17.5812624 3.52592406,18.2898112 3.09806148,19.0067701 C4.38164922,14.2655902 7.17379421,10.1404483 10.9278416,7.17379421 M13.0997435,8.01585299 C13.3562508,6.81216097 14.0795173,5.74092763 15.1959548,4.85366469 C17.8955889,4.04419495 21.0430596,4.2397292 24.3471679,5.44867752 C22.957403,5.69046718 21.5655355,6.0111013 20.193642,6.42424625 C17.6369791,7.19166562 15.2285438,8.24187376 13.0240528,9.51284639 C12.9725411,9.00719061 12.9967201,8.50679114 13.0997435,8.01585299 M31.8846979,4.96509819 C32.67945,4.4520836 33.4079728,4.09886043 34.0198057,3.95273538 C35.1814474,4.4184433 36.3336277,5.01240486 37.4237837,5.76405534 C35.6776418,5.32568016 33.8127076,5.05866028 31.8846979,4.96509819 M27.9855767,2.4862285 C28.9243514,2.59135444 29.9262016,2.75114587 30.9543333,2.99083302 C30.3099113,3.3356461 29.640259,3.7708675 28.9611455,4.29018965 C28.6615365,3.61002481 28.3345948,3.00555065 27.9855767,2.4862285 M25.4762205,3.39556789 C24.4291661,2.99293554 23.3947269,2.68281401 22.3718515,2.46099828 C23.1907826,2.36848745 24.0202262,2.31697574 24.862285,2.31697574 C25.2565073,2.32118077 25.7390354,2.79529877 26.2457424,3.70884319 C25.9902864,3.60371725 25.7337791,3.49438627 25.4762205,3.39556789 M-1.1671324e-15,24.8959253 C-1.1671324e-15,27.261259 0.336403011,29.5487995 0.958748581,31.7185989 C0.993440141,31.8668265 1.0281317,32.0097977 1.07123334,32.1559228 C1.08174593,32.1843068 1.09330979,32.209537 1.10382238,32.237921 C4.24288297,42.3909844 13.7189353,49.7865943 24.890669,49.7865943 C30.0586603,49.7865943 34.8629158,48.2033977 38.8461377,45.497456 C38.8871368,45.4753795 38.9239309,45.4564568 38.9607249,45.4322779 C39.2014634,45.2703839 39.4264329,45.1021824 39.6482486,44.9255708 C44.2275346,41.5394643 47.6125899,36.6258778 49.0359951,30.9406669 C49.1158908,30.6799546 49.1884277,30.4129347 49.2430932,30.1438123 C49.2578109,30.0786342 49.2620159,30.0187124 49.2651697,29.9545856 C49.6005214,28.3177747 49.781338,26.6262983 49.781338,24.8959253 C49.781338,21.535049 49.1221984,18.2740423 47.8270468,15.2064673 C47.5789496,14.6156596 46.8966822,14.3423321 46.3100795,14.5904293 C45.7234767,14.8385266 45.4459442,15.5186914 45.6940415,16.1052941 C46.8704007,18.8869265 47.4685673,21.8451705 47.4685673,24.8927715 C47.4685673,26.7608595 47.236239,28.5763845 46.8052227,30.3130651 C46.4667171,31.4095286 45.8632942,32.4239939 45.0327993,33.3438459 C45.051722,32.9496236 45.0653883,32.5532989 45.0653883,32.148564 C45.0759009,27.7027879 43.8480299,23.0152222 41.5688995,18.605189 C43.2382995,17.1702199 44.3042765,15.395694 44.6690635,13.4140701 C44.7836508,12.7854169 44.3715571,12.181994 43.738699,12.0653042 C43.1100458,11.950717 42.5066229,12.3649132 42.3920357,12.9935663 C42.150246,14.305538 41.4690299,15.5092301 40.4020016,16.5289517 C40.0740087,15.9812455 39.7281443,15.4387957 39.3633573,14.9047559 C37.3302216,11.9254867 34.9175813,9.3467474 32.2757664,7.29153526 C35.7617426,7.52176107 38.9880577,8.36487112 41.5836172,9.81666036 C41.9904546,10.0489887 42.5318532,10.0405786 42.9124091,9.72414953 C43.4075522,9.31415836 43.4685253,8.58248181 43.0627392,8.09154367 C39.333922,2.87624574 32.882343,-4.6685296e-16 24.8917203,-4.6685296e-16 C11.1675287,0.00210251882 -1.1671324e-15,11.1696312 -1.1671324e-15,24.8959253" id="path-1"></path>
        <radialGradient cx="95.4350535%" cy="18.6674025%" fx="95.4350535%" fy="18.6674025%" r="83.3723103%" gradientTransform="translate(0.954351,0.186674),scale(0.999958,1.000000),translate(-0.954351,-0.186674)" id="radialGradient-3">
            <stop stop-color="#FFFFFF" offset="0%"></stop>
            <stop stop-color="#E7F1FA" offset="8.21%"></stop>
            <stop stop-color="#B0D5F1" offset="25.1%"></stop>
            <stop stop-color="#50B2E4" offset="49%"></stop>
            <stop stop-color="#2BABE2" offset="54.4%"></stop>
            <stop stop-color="#0D2240" offset="100%"></stop>
        </radialGradient>
        <rect id="path-4" x="2.98785895e-14" y="1.86741184e-15" width="2.1056726" height="9.63374122"></rect>
        <path d="M2.00475169,1.00395274 L2.00475169,1.00395274 C2.40528153,0.401581094 3.10857407,0 4.11252681,0 C4.81581935,0 6.11938102,0.502501997 6.32122282,1.50540347 C6.42004121,1.90593331 6.42004121,2.30856566 6.42004121,2.60817459 L6.42004121,6.92359447 L4.41423826,6.92359447 L4.41423826,2.90988604 C4.41423826,2.20764476 4.21449897,1.40448257 3.21054623,1.40448257 C2.60817459,1.40448257 2.00580295,2.00685421 2.00580295,2.90988604 L2.00580295,6.92359447 L0,6.92359447 L0,0.199739288 L2.00580295,0.199739288 L2.00580295,1.00395274 L2.00475169,1.00395274 Z" id="path-6"></path>
        <path d="M1.30251041,2.00685421 L1.30251041,0.702241285 L3.31041588,0 L3.31041588,2.00685421 L4.81581935,2.00685421 L4.81581935,3.31146714 L3.31041588,3.31146714 L3.31041588,6.42109247 C3.31041588,7.32517556 3.41028552,7.52596611 4.11357807,7.52596611 L4.71489845,7.52596611 L4.71489845,8.73070939 C4.51515916,8.83163029 3.41028552,8.93149994 3.10962533,8.93149994 C1.50540347,8.93149994 1.20474328,8.12833775 1.20474328,6.62293428 L1.20474328,3.31146714 L0,3.31146714 L0,2.00685421 L1.30251041,2.00685421 L1.30251041,2.00685421 Z" id="path-8"></path>
        <path d="M4.51515916,2.70804424 C4.51515916,2.00580295 4.31331735,1.30356167 3.31041588,1.30356167 C2.40843531,1.30356167 2.20554224,2.00580295 2.20554224,2.70804424 L4.51515916,2.70804424 Z M2.1056726,4.01265716 C2.1056726,4.91674025 2.20554224,5.71885118 3.21054623,5.71885118 C3.91278752,5.71885118 4.21344771,5.41819099 4.41423826,4.81581935 L6.22030192,4.81581935 C6.02161389,6.42214373 4.71489845,7.02451537 3.21159749,7.02451537 C0.903031832,7.02451537 0,5.71990244 0,3.51225768 C0,1.50540347 1.20369202,0 3.21159749,0 C4.41528952,0 5.5191119,0.402632354 6.02161389,1.60527312 C6.22030192,2.00685421 6.32227408,2.40948656 6.32227408,2.8100164 C6.42214373,3.21159749 6.42214373,3.61317859 6.42214373,4.11462933 L2.10777511,4.11462933 L2.10777511,4.01265716 L2.1056726,4.01265716 Z" id="path-10"></path>
        <path d="M2.00685421,0.0998696438 L2.00685421,1.30461293 C2.40738405,0.30171145 3.31146714,0 4.31436861,0 L4.31436861,1.80711492 L3.41028552,1.80711492 C3.10962533,1.80711492 2.60922585,2.00685421 2.40738405,2.30961692 C2.20764476,2.71014676 2.10672386,3.01080695 2.10672386,3.51330894 L2.10672386,6.82477608 L0.0998696438,6.82477608 L0.0998696438,1.50540347 C0.0998696438,1.20474328 0.0998696438,0.702241285 0,0.200790547 L2.00685421,0.200790547 L2.00685421,0.0998696438 L2.00685421,0.0998696438 Z" id="path-12"></path>
        <path d="M2.00790547,1.00395274 L2.00790547,1.00395274 C2.40843531,0.401581094 3.11172785,0 4.11462933,0 C4.81687061,0 6.12148354,0.502501997 6.32227408,1.50540347 C6.42319499,1.90593331 6.42319499,2.30856566 6.42319499,2.60817459 L6.42319499,6.92359447 L4.41528952,6.92359447 L4.41528952,2.90988604 C4.41528952,2.20764476 4.21660149,1.40448257 3.21159749,1.40448257 C2.60922585,1.40448257 2.00790547,2.00685421 2.00790547,2.90988604 L2.00790547,6.92359447 L0,6.92359447 L0,0.199739288 L2.00790547,0.199739288 L2.00790547,1.00395274 L2.00790547,1.00395274 Z" id="path-14"></path>
        <path d="M1.90698457,4.81687061 C1.90698457,5.41819099 2.30856566,5.82082335 2.90988604,5.82082335 C4.01475968,5.82082335 4.01475968,4.61713132 4.01475968,3.81396914 C3.3125184,3.81396914 1.90698457,3.81396914 1.90698457,4.81687061 Z M0.30171145,2.10777511 C0.30171145,1.30461293 0.703292544,0.703292544 1.20369202,0.401581094 C1.70724528,0.0998696438 2.40843531,0 3.21159749,0 C4.51621042,0 6.02266515,0.502501997 6.02266515,2.50935621 L6.02266515,6.12148354 C6.02266515,6.42319499 6.1225348,6.62398553 6.1225348,6.82372482 L4.31647113,6.82372482 C4.31647113,6.52306463 4.21449897,6.22135318 4.21449897,5.92069299 C3.71199697,6.72280392 3.11067659,7.02451537 2.20764476,7.02451537 C1.00290148,7.02451537 -2.98785895e-14,6.32227408 -2.98785895e-14,5.01766116 C-2.98785895e-14,4.51515916 0.199739288,3.41133678 1.40553383,2.90988604 C2.20764476,2.60817459 3.21159749,2.50935621 4.01370842,2.50935621 L4.01370842,1.90593331 C4.01370842,1.60527312 3.81396914,1.10382238 3.11067659,1.10382238 C2.40843531,1.10382238 2.20764476,1.80606366 2.20764476,2.10672386 L0.30171145,2.10672386 L0.30171145,2.10777511 Z" id="path-16"></path>
        <path d="M1.40343131,2.00685421 L1.40343131,0.702241285 L3.41028552,0 L3.41028552,2.00685421 L4.91674025,2.00685421 L4.91674025,3.31146714 L3.41028552,3.31146714 L3.41028552,6.42109247 C3.41028552,7.32517556 3.51120643,7.52596611 4.21344771,7.52596611 L4.81581935,7.52596611 L4.81581935,8.73070939 C4.6150288,8.83163029 3.51120643,8.93149994 3.21054623,8.93149994 C1.60422186,8.93149994 1.30356167,8.12833775 1.30356167,6.62293428 L1.30356167,3.31146714 L0,3.31146714 L0,2.00685421 L1.40343131,2.00685421 L1.40343131,2.00685421 Z" id="path-18"></path>
        <path d="M2.00685421,3.01080695 L2.00685421,9.73466213 L0.00105125941,9.73466213 L0.00105125941,3.01080695 L2.00685421,3.01080695 Z M2.10777511,-1.86741184e-15 L2.10777511,1.70619402 L0,1.70619402 L0,-1.86741184e-15 L2.10777511,-1.86741184e-15 Z" id="path-20"></path>
        <path d="M3.51120643,5.71990244 C4.71594971,5.71990244 4.915689,4.6150288 4.915689,3.51225768 C4.915689,2.40948656 4.71594971,1.30461293 3.51120643,1.30461293 C2.30646314,1.30461293 2.10672386,2.40948656 2.10672386,3.51225768 C2.10672386,4.6150288 2.30646314,5.71990244 3.51120643,5.71990244 Z M3.51120643,7.02451537 C1.30356167,7.02451537 0,5.61898154 0,3.51225768 C0,1.40553383 1.30356167,0 3.51120643,0 C5.71885118,0 7.02451537,1.40553383 7.02451537,3.51225768 C7.02451537,5.61898154 5.71779992,7.02451537 3.51120643,7.02451537 Z" id="path-22"></path>
        <path d="M2.00790547,1.00395274 L2.00790547,1.00395274 C2.40843531,0.401581094 3.11067659,0 4.11462933,0 C4.81687061,0 6.12148354,0.502501997 6.32227408,1.50540347 C6.42319499,1.90593331 6.42319499,2.30856566 6.42319499,2.60817459 L6.42319499,6.92359447 L4.41528952,6.92359447 L4.41528952,2.90988604 C4.41528952,2.20764476 4.21660149,1.40448257 3.21159749,1.40448257 C2.60922585,1.40448257 2.00790547,2.00685421 2.00790547,2.90988604 L2.00790547,6.92359447 L0,6.92359447 L0,0.199739288 L2.00790547,0.199739288 L2.00790547,1.00395274 L2.00790547,1.00395274 Z" id="path-24"></path>
        <path d="M1.90803583,4.81687061 C1.90803583,5.41819099 2.30961692,5.82082335 2.9109373,5.82082335 C4.01581094,5.82082335 4.01581094,4.61713132 4.01581094,3.81396914 C3.41238804,3.81396914 1.90803583,3.81396914 1.90803583,4.81687061 Z M0.30171145,2.10777511 C0.30171145,1.30461293 0.702241285,0.703292544 1.20369202,0.401581094 C1.70724528,0.0998696438 2.40843531,0 3.21159749,0 C4.51621042,0 6.02161389,0.502501997 6.02161389,2.50935621 L6.02161389,6.12148354 C6.02161389,6.42319499 6.1225348,6.62398553 6.1225348,6.82372482 L4.31541987,6.82372482 C4.31541987,6.52306463 4.21449897,6.22135318 4.21449897,5.92069299 C3.71199697,6.72280392 3.11067659,7.02451537 2.20764476,7.02451537 C0.904083092,7.02451537 0,6.32227408 0,5.01766116 C0,4.51515916 0.199739288,3.41133678 1.40448257,2.90988604 C2.20764476,2.60817459 3.21159749,2.50935621 4.01370842,2.50935621 L4.01370842,1.90593331 C4.01370842,1.60527312 3.81396914,1.10382238 3.11067659,1.10382238 C2.40843531,1.10382238 2.20764476,1.80606366 2.20764476,2.10672386 L0.30171145,2.10672386 L0.30171145,2.10777511 Z" id="path-26"></path>
        <rect id="path-28" x="-2.98785895e-14" y="1.86741184e-15" width="2.00790547" height="9.63374122"></rect>
        <path d="M2.00580295,8.0284681 L3.10962533,8.0284681 C5.5191119,8.0284681 5.92174425,6.32227408 5.92174425,4.81687061 C5.92174425,3.31146714 5.5191119,1.60632438 3.10962533,1.60632438 L2.00580295,1.60632438 L2.00580295,8.0284681 Z M0,1.86741184e-15 L3.31146714,1.86741184e-15 C6.32122282,1.86741184e-15 8.22820739,1.50540347 8.22820739,4.81687061 C8.22820739,8.12833775 6.32227408,9.63374122 3.31146714,9.63374122 L0,9.63374122 L0,1.86741184e-15 Z" id="path-30"></path>
        <path d="M4.41528952,2.70804424 C4.41528952,2.00580295 4.21555023,1.30356167 3.21054623,1.30356167 C2.30961692,1.30356167 2.1056726,2.00580295 2.1056726,2.70804424 L4.41528952,2.70804424 Z M2.1056726,4.01265716 C2.1056726,4.91674025 2.20764476,5.71885118 3.21054623,5.71885118 C3.91383878,5.71885118 4.21555023,5.41819099 4.41528952,4.81581935 L6.22135318,4.81581935 C6.02161389,6.42214373 4.71594971,7.02451537 3.21054623,7.02451537 C0.904083092,7.02451537 0,5.71990244 0,3.51225768 C0,1.50540347 1.20474328,0 3.21054623,0 C4.41528952,0 5.5191119,0.402632354 6.02161389,1.60527312 C6.22135318,2.00685421 6.32332534,2.40948656 6.32332534,2.8100164 C6.42214373,3.21159749 6.42214373,3.61317859 6.42214373,4.11462933 L2.10672386,4.11462933 L2.10672386,4.01265716 L2.1056726,4.01265716 Z" id="path-32"></path>
        <polygon id="path-34" points="0 0 2.10777511 0 3.61317859 4.51515916 5.11858206 0 7.02451537 0 4.61608006 6.72280392 2.40843531 6.72280392"></polygon>
        <path d="M4.41423826,2.70804424 C4.41423826,2.00580295 4.21555023,1.30356167 3.21159749,1.30356167 C2.3075144,1.30356167 2.10672386,2.00580295 2.10672386,2.70804424 L4.41423826,2.70804424 Z M2.10672386,4.01265716 C2.10672386,4.91674025 2.2065935,5.71885118 3.21159749,5.71885118 C3.91278752,5.71885118 4.21449897,5.41819099 4.41423826,4.81581935 L6.22135318,4.81581935 C6.02161389,6.42214373 4.71594971,7.02451537 3.21264875,7.02451537 C0.903031832,7.02451537 0,5.71990244 0,3.51225768 C0,1.50540347 1.20474328,0 3.21264875,0 C4.41528952,0 5.5191119,0.402632354 6.02161389,1.60527312 C6.22135318,2.00685421 6.32227408,2.40948656 6.32227408,2.8100164 C6.42214373,3.21159749 6.42214373,3.61317859 6.42214373,4.11462933 L2.10777511,4.11462933 L2.10777511,4.01265716 L2.10672386,4.01265716 Z" id="path-36"></path>
        <rect id="path-38" x="0" y="1.86741184e-15" width="2.00685421" height="9.63374122"></rect>
        <path d="M3.51225768,5.71990244 C4.71594971,5.71990244 4.91674025,4.6150288 4.91674025,3.51225768 C4.91674025,2.40948656 4.71594971,1.30461293 3.51225768,1.30461293 C2.3075144,1.30461293 2.10672386,2.40948656 2.10672386,3.51225768 C2.00580295,4.6150288 2.2065935,5.71990244 3.51225768,5.71990244 Z M3.51225768,7.02451537 C1.30356167,7.02451537 0,5.61898154 0,3.51225768 C0,1.40553383 1.30356167,0 3.51225768,0 C5.71990244,0 7.02451537,1.40553383 7.02451537,3.51225768 C6.92359447,5.61898154 5.6200328,7.02451537 3.51225768,7.02451537 Z" id="path-40"></path>
        <path d="M3.51120643,5.82082335 C4.81581935,5.82082335 4.91779151,4.61713132 4.91779151,3.61317859 C4.91779151,2.60922585 4.71489845,1.40553383 3.51120643,1.40553383 C2.40738405,1.40553383 2.1056726,2.71014676 2.1056726,3.61317859 C2.1056726,4.51621042 2.40843531,5.82082335 3.51120643,5.82082335 Z M2.10672386,1.00395274 L2.10672386,1.00395274 C2.50935621,0.401581094 3.21054623,-3.73482368e-15 3.91383878,-3.73482368e-15 C6.02266515,-3.73482368e-15 7.02556663,1.70619402 7.02556663,3.51225768 C7.02556663,5.21740045 6.12148354,7.02451537 4.11462933,7.02451537 C3.21054623,7.02451537 2.50935621,6.62293428 2.10672386,5.92069299 L2.10672386,9.43295067 L0.100920903,9.43295067 L0.100920903,1.60632438 C0.100920903,1.20474328 0.100920903,0.703292544 0,0.30171145 L2.00790547,0.30171145 L2.10672386,1.00395274 Z" id="path-42"></path>
        <path d="M2.00685421,1.00395274 L2.00685421,1.00395274 C2.40843531,0.401581094 3.11172785,0 4.11462933,0 C4.81581935,0 5.91964173,0.502501997 6.22135318,1.30461293 C6.82372482,0.401581094 7.42609646,0 8.52991884,0 C9.23216013,0 10.3359825,0.502501997 10.637694,1.30461293 C10.8374332,1.80711492 10.8374332,2.40843531 10.8374332,2.90988604 L10.8374332,6.92359447 L8.82952777,6.92359447 L8.82952777,2.90988604 C8.82952777,2.20764476 8.63083975,1.40448257 7.62688701,1.40448257 C7.02346411,1.40448257 6.42109247,2.00685421 6.42109247,2.90988604 L6.42109247,6.92359447 L4.41528952,6.92359447 L4.41528952,2.90988604 C4.41528952,2.20764476 4.21555023,1.40448257 3.21159749,1.40448257 C2.60922585,1.40448257 2.00685421,2.00685421 2.00685421,2.90988604 L2.00685421,6.92359447 L-5.97571789e-14,6.92359447 L-5.97571789e-14,0.199739288 L2.00685421,0.199739288 L2.00685421,1.00395274 Z" id="path-44"></path>
        <path d="M4.413187,2.70804424 C4.413187,2.00580295 4.21344771,1.30356167 3.20949497,1.30356167 C2.30541188,1.30356167 2.1056726,2.00580295 2.1056726,2.70804424 L4.413187,2.70804424 Z M2.10672386,4.01265716 C2.10672386,4.91674025 2.20554224,5.71885118 3.21054623,5.71885118 C3.91278752,5.71885118 4.21344771,5.41819099 4.41423826,4.81581935 L6.22240444,4.81581935 C6.02161389,6.42214373 4.71594971,7.02451537 3.21159749,7.02451537 C0.904083092,7.02451537 0,5.71990244 0,3.51225768 C0,1.50540347 1.20369202,0 3.21159749,0 C4.41528952,0 5.5191119,0.402632354 6.02161389,1.60527312 C6.22240444,2.00685421 6.32122282,2.40948656 6.32122282,2.8100164 C6.42319499,3.21159749 6.42319499,3.61317859 6.42319499,4.11462933 L2.10882637,4.11462933 L2.10882637,4.01265716 L2.10672386,4.01265716 Z" id="path-46"></path>
        <path d="M2.00580295,1.00395274 L2.00580295,1.00395274 C2.40843531,0.401581094 3.10962533,0 4.11252681,0 C4.81687061,0 6.12043228,0.502501997 6.32227408,1.50540347 C6.42319499,1.90593331 6.42319499,2.30856566 6.42319499,2.60817459 L6.42319499,6.92359447 L4.41528952,6.92359447 L4.41528952,2.90988604 C4.41528952,2.20764476 4.21555023,1.40448257 3.21159749,1.40448257 C2.60922585,1.40448257 2.00685421,2.00685421 2.00685421,2.90988604 L2.00685421,6.92359447 L0,6.92359447 L0,0.199739288 L2.00685421,0.199739288 L2.00685421,1.00395274 L2.00580295,1.00395274 Z" id="path-48"></path>
        <path d="M1.40238005,2.00685421 L1.40238005,0.702241285 L3.41028552,0 L3.41028552,2.00685421 L4.915689,2.00685421 L4.915689,3.31146714 L3.41028552,3.31146714 L3.41028552,6.42109247 C3.41028552,7.32517556 3.51015517,7.52596611 4.21344771,7.52596611 L4.81476809,7.52596611 L4.81476809,8.73070939 C4.6150288,8.83163029 3.51015517,8.93149994 3.20949497,8.93149994 C1.60527312,8.93149994 1.30356167,8.12833775 1.30356167,6.62293428 L1.30356167,3.31146714 L-5.97571789e-14,3.31146714 L-5.97571789e-14,2.00685421 L1.40238005,2.00685421 L1.40238005,2.00685421 Z" id="path-50"></path>
        <path d="M6.02161389,6.02056263 L4.71594971,1.90698457 L3.31146714,6.02056263 L6.02161389,6.02056263 Z M0,9.63479248 L3.51330894,0 L5.91964173,0 L9.23110887,9.63479248 L7.12438501,9.63479248 L6.42214373,7.62583575 L2.60817459,7.62583575 L1.90488205,9.63479248 L0,9.63479248 Z" id="path-52"></path>
        <path d="M3.81186662,1.90908709 C3.81186662,1.40553383 3.31146714,1.20474328 2.90988604,1.20474328 C2.40738405,1.20474328 2.10672386,1.40448257 2.10672386,1.80711492 C2.10672386,2.8100164 5.92069299,2.30961692 5.92069299,4.81581935 C5.92069299,6.32227408 4.11357807,7.02556663 2.90988604,7.02556663 C1.30461293,7.02556663 0,6.42529751 0,4.91884277 L1.80606366,4.91884277 C1.80606366,5.42029351 2.3075144,5.7209537 2.90988604,5.7209537 C3.41238804,5.7209537 3.91278752,5.52121441 3.91278752,5.01976368 C3.91278752,4.51621042 2.90988604,4.21555023 2.50935621,4.11568059 C1.20369202,3.81502039 0,3.51541146 0,2.00790547 C0,0.602371641 1.70619402,0 2.90988604,0 C4.31541987,0 5.5191119,0.503553257 5.6200328,2.00790547 L3.81186662,2.00790547 L3.81186662,1.90908709 Z" id="path-54"></path>
        <path d="M3.81291788,1.90908709 C3.81291788,1.40553383 3.31041588,1.20474328 2.9109373,1.20474328 C2.40738405,1.20474328 2.10777511,1.40448257 2.10777511,1.80711492 C2.10777511,2.8100164 5.92069299,2.30961692 5.92069299,4.81581935 C5.92069299,6.32227408 4.11357807,7.02556663 2.9109373,7.02556663 C1.30566419,7.02556663 0,6.42529751 0,4.91884277 L1.80711492,4.91884277 C1.80711492,5.42029351 2.30856566,5.7209537 2.9109373,5.7209537 C3.41238804,5.7209537 3.91383878,5.52121441 3.91383878,5.01976368 C3.91383878,4.51621042 2.9109373,4.21555023 2.50935621,4.11568059 C1.20369202,3.81502039 0,3.51541146 0,2.00790547 C0,0.602371641 1.70514276,0 2.9109373,0 C4.31541987,0 5.5191119,0.503553257 5.61898154,2.00790547 L3.81291788,2.00790547 L3.81291788,1.90908709 Z" id="path-56"></path>
        <path d="M3.51330894,5.7209537 C4.71700097,5.7209537 4.91884277,4.61608006 4.91884277,3.5143602 C4.91884277,2.40948656 4.71700097,1.30461293 3.51330894,1.30461293 C2.30961692,1.30461293 2.10882637,2.40948656 2.10882637,3.5143602 C2.10882637,4.61608006 2.30961692,5.7209537 3.51330894,5.7209537 Z M3.51330894,7.02556663 C1.30566419,7.02556663 -2.98785895e-14,5.6200328 -2.98785895e-14,3.5143602 C-2.98785895e-14,1.40448257 1.30566419,0 3.51330894,0 C5.72200496,0 7.02556663,1.40448257 7.02556663,3.5143602 C7.02556663,5.6200328 5.7209537,7.02556663 3.51330894,7.02556663 Z" id="path-58"></path>
        <path d="M4.11357807,2.51040747 C4.11357807,2.00790547 3.91278752,1.30566419 3.11067659,1.30566419 C2.2065935,1.30566419 2.2065935,2.91198856 2.2065935,3.41449056 C2.30856566,4.01475968 2.30856566,5.7209537 3.11067659,5.7209537 C3.91278752,5.7209537 4.11357807,4.91884277 4.11357807,4.41634078 L6.02056263,4.41634078 C5.91859047,6.12148354 4.915689,7.02556663 3.00975569,7.02556663 C1.00290148,7.02556663 -2.98785895e-14,5.21950296 -2.98785895e-14,3.5143602 C-2.98785895e-14,1.70619402 1.00290148,0 3.00975569,0 C4.71489845,0 6.02056263,1.00500399 6.02056263,2.50935621 L4.11357807,2.50935621 L4.11357807,2.51040747 Z" id="path-60"></path>
        <path d="M2.00790547,3.01185821 L2.00790547,9.73571338 L0,9.73571338 L0,3.01185821 L2.00790547,3.01185821 Z M2.10672386,-3.73482368e-15 L2.10672386,1.70724528 L2.99760217e-14,1.70724528 L2.99760217e-14,-3.73482368e-15 L2.10672386,-3.73482368e-15 Z" id="path-62"></path>
        <path d="M1.90803583,4.81687061 C1.90803583,5.42029351 2.30856566,5.82082335 2.9109373,5.82082335 C4.01370842,5.82082335 4.01370842,4.61608006 4.01370842,3.81502039 C3.31146714,3.81396914 1.90803583,3.81396914 1.90803583,4.81687061 Z M0.300660191,2.10672386 C0.300660191,1.30356167 0.703292544,0.701190026 1.20474328,0.400529835 C1.70619402,0.0988183844 2.40948656,0 3.21054623,0 C4.51621042,0 6.02161389,0.502501997 6.02161389,2.50935621 L6.02161389,6.12148354 C6.02161389,6.42214373 6.12148354,6.62293428 6.12148354,6.82477608 L4.31436861,6.82477608 C4.31436861,6.52516715 4.21555023,6.22135318 4.21555023,5.92174425 C3.71304823,6.72280392 3.11067659,7.02661789 2.20764476,7.02661789 C0.904083092,7.02661789 0,6.32227408 0,5.01976368 C0,4.51621042 0.200790547,3.41238804 1.40448257,2.9109373 C2.20764476,2.61027711 3.21054623,2.51040747 4.01265716,2.51040747 L4.01265716,1.90803583 C4.01265716,1.60632438 3.81291788,1.10487364 3.11067659,1.10487364 C2.40948656,1.10487364 2.20764476,1.80711492 2.20764476,2.10777511 L0.300660191,2.10777511 L0.300660191,2.10672386 Z" id="path-64"></path>
        <path d="M1.40343131,2.00685421 L1.40343131,0.702241285 L3.41028552,0 L3.41028552,2.00685421 L4.91674025,2.00685421 L4.91674025,3.31041588 L3.41028552,3.31041588 L3.41028552,6.42109247 C3.41028552,7.32517556 3.51120643,7.52596611 4.21344771,7.52596611 L4.81581935,7.52596611 L4.81581935,8.73070939 C4.6150288,8.83057903 3.51120643,8.93044868 3.21054623,8.93044868 C1.60527312,8.93044868 1.30356167,8.12623523 1.30356167,6.62083176 L1.30356167,3.31041588 L0,3.31041588 L0,2.00685421 L1.40343131,2.00685421 Z" id="path-66"></path>
        <path d="M2.00895673,3.01185821 L2.00895673,9.73571338 L0.00105125941,9.73571338 L0.00105125941,3.01185821 L2.00895673,3.01185821 Z M2.10882637,-3.73482368e-15 L2.10882637,1.70724528 L-2.98785895e-14,1.70724528 L-2.98785895e-14,-3.73482368e-15 L2.10882637,-3.73482368e-15 Z" id="path-68"></path>
        <path d="M3.51225768,5.7209537 C4.71700097,5.7209537 4.91779151,4.61608006 4.91779151,3.5143602 C4.91779151,2.40948656 4.71700097,1.30461293 3.51225768,1.30461293 C2.3075144,1.30461293 2.10672386,2.40948656 2.10672386,3.5143602 C2.10672386,4.61608006 2.30646314,5.7209537 3.51225768,5.7209537 Z M3.51225768,7.02556663 C1.30356167,7.02556663 2.98785895e-14,5.6200328 2.98785895e-14,3.5143602 C2.98785895e-14,1.40448257 1.30356167,0 3.51225768,0 C5.7209537,0 7.02346411,1.40448257 7.02346411,3.5143602 C7.02346411,5.6200328 5.71990244,7.02556663 3.51225768,7.02556663 Z" id="path-70"></path>
        <path d="M2.00580295,1.00290148 L2.00580295,1.00290148 C2.40633279,0.400529835 3.10962533,0 4.11357807,0 C4.81476809,0 6.12043228,0.502501997 6.32122282,1.50435221 C6.42109247,1.90698457 6.42109247,2.30856566 6.42109247,2.60922585 L6.42109247,6.92464573 L4.41528952,6.92464573 L4.41528952,2.90883478 C4.41528952,2.2065935 4.21449897,1.40343131 3.21054623,1.40343131 C2.61027711,1.40343131 2.00685421,2.00790547 2.00685421,2.90883478 L2.00685421,6.92359447 L0,6.92359447 L0,0.198688028 L2.00685421,0.198688028 L2.00685421,1.00290148 L2.00580295,1.00290148 Z" id="path-72"></path>
    </defs>
    <g id="Page-1" stroke="none" stroke-width="1" fill="none" fill-rule="evenodd">
        <g id="ida-logo-(1)" transform="translate(0.248000, 0.480000)">
            <g id="Group" transform="translate(58.673941, 7.450275)" fill="#0D2240" fill-rule="nonzero">
                <polygon id="Path" points="7.46964736e-15 36.7635928 7.46964736e-15 0.00105125941 7.24948488 0.00105125941 7.24948488 36.7635928"></polygon>
                <path d="M14.3938438,36.7635928 L14.3938438,0.00105125941 L25.1597914,0.00105125941 C34.8208654,0.00105125941 43.4359363,5.2005803 43.4359363,19.0120264 C43.4359363,32.0875909 35.6608217,36.7625415 26.7356293,36.7625415 L14.3938438,36.7635928 L14.3938438,36.7635928 Z M26.6830663,30.8817964 C32.3052016,30.8817964 36.2432194,26.7860897 36.2432194,18.9079517 C36.2432194,10.7669989 32.7751146,5.88074513 25.0546655,5.88074513 L21.6401749,5.88074513 L21.6401749,30.8796939 L26.6830663,30.8817964 L26.6830663,30.8817964 Z" id="Shape"></path>
                <path d="M67.7231824,27.5724318 L54.6980783,27.5724318 L51.6000168,36.7625415 L44.0393592,36.7625415 L57.5364787,0 L64.94155,0 L78.4386695,36.7625415 L70.9263698,36.7625415 L67.7231824,27.5724318 Z M56.6418569,22.0585762 L65.8845297,22.0585762 L61.2127329,8.7201968 L56.6418569,22.0585762 Z" id="Shape"></path>
            </g>
            <path d="M148.409445,44.634372 C148.177116,44.634372 147.988941,44.4430428 147.988941,44.2138682 L147.988941,7.44817291 C147.988941,7.21374206 148.179219,7.02766915 148.409445,7.02766915 C148.63967,7.02766915 148.827846,7.21584458 148.827846,7.44817291 L148.827846,44.212817 C148.829948,44.4451453 148.641773,44.634372 148.409445,44.634372 Z" id="Path" fill="#0D2240" fill-rule="nonzero"></path>
            <path d="M245.686683,37.6466507 C247.32875,37.6466507 248.241243,38.4435053 248.241243,39.8921408 C248.241243,41.2608805 247.343467,42.0724528 245.85173,42.0724528 L244.802573,42.0724528 L244.802573,44.1613052 L243.417014,44.1613052 L243.417014,37.6466507 L245.686683,37.6466507 Z M244.801522,40.9391952 L245.628863,40.9391952 C246.436231,40.9391952 246.842017,40.5828182 246.842017,39.8910895 C246.842017,39.1867457 246.396283,38.7967285 245.583659,38.7967285 L244.801522,38.7967285 L244.801522,40.9391952 Z M240.859299,41.5489256 C240.859299,42.5066229 240.493461,42.9733821 239.740759,42.9733821 C238.976494,42.9733821 238.592784,42.4940078 238.592784,41.5489256 L238.592784,37.6455994 L237.205122,37.6455994 L237.205122,41.4595686 C237.200917,42.3941382 237.433245,43.1016358 237.894748,43.5652412 C238.323662,43.9952063 238.946007,44.212817 239.740759,44.212817 C240.886632,44.212817 242.250116,43.7365964 242.250116,41.4595686 L242.250116,37.6455994 L240.863504,37.6455994 L240.859299,41.5489256 L240.859299,41.5489256 Z M233.418485,37.5919852 C234.82507,37.5919852 236.328371,38.4655818 236.328371,40.9139649 C236.328371,43.3444767 234.82507,44.2138682 233.418485,44.2138682 C232.00349,44.2138682 230.499138,43.3476305 230.499138,40.9139649 C230.499138,38.4655818 232.005593,37.5919852 233.418485,37.5919852 M233.418485,43.0007149 C233.966191,43.0007149 234.894454,42.7284387 234.894454,40.9160674 C234.894454,39.0963374 233.966191,38.8251125 233.418485,38.8251125 C232.459737,38.8251125 231.932005,39.5683529 231.932005,40.9160674 C231.932005,42.263782 232.459737,43.0007149 233.418485,43.0007149 M229.066271,42.1870401 C229.296497,42.652748 229.495185,43.0553803 229.953534,43.0553803 L230.281527,43.0553803 L230.281527,44.1276649 L230.238426,44.1402801 C230.225811,44.1402801 229.984021,44.2054581 229.559312,44.2054581 C228.467054,44.2054581 228.130651,43.4527564 227.832093,42.7873092 C227.588201,42.2406543 227.380051,41.7696901 226.807115,41.7696901 L226.197384,41.7696901 L226.197384,44.1581515 L224.80762,44.1581515 L224.80762,37.6455994 L227.117236,37.6455994 C228.801354,37.6455994 229.589799,38.3047391 229.589799,39.7207855 C229.589799,40.5912283 229.066271,41.1347294 228.540642,41.3628527 C228.771919,41.5846684 228.920146,41.8905849 229.066271,42.1870401 M226.197384,40.6921492 L226.964804,40.6921492 C227.738531,40.6921492 228.214751,40.3315672 228.214751,39.7523233 C228.214751,39.1446953 227.798453,38.794626 227.066776,38.794626 L226.194231,38.794626 L226.197384,40.6921492 L226.197384,40.6921492 Z M221.113494,41.7791514 L222.542156,41.7791514 L222.542156,41.8506371 C222.542156,42.2711408 222.393928,42.9796897 221.39418,42.9796897 C220.453303,42.9796897 219.888777,42.2059627 219.888777,40.9108112 C219.888777,39.5778142 220.429124,38.8198562 221.365796,38.8198562 C222.483285,38.8198562 222.525335,39.9499601 222.525335,39.9972667 L222.525335,40.0740087 L223.817333,39.8721669 L223.817333,39.8153988 C223.817333,39.3454859 223.401034,37.5898827 221.344771,37.5898827 C219.509272,37.5898827 218.453808,38.8009335 218.453808,40.9118624 C218.453808,42.9807409 219.541861,44.2117657 221.366847,44.2117657 C223.19709,44.2117657 223.84782,42.9355368 223.84782,41.8411757 L223.84782,40.7100206 L221.11034,40.7100206 L221.113494,41.7791514 L221.113494,41.7791514 Z M216.957866,37.6466507 L215.311593,37.6466507 L213.153358,40.5786132 L213.153358,37.6466507 L211.74467,37.6466507 L211.74467,44.1613052 L213.153358,44.1613052 L213.153358,41.1610109 L215.365208,44.1613052 L217.034607,44.1613052 L214.51579,40.8761196 L216.957866,37.6466507 Z M209.112317,41.671923 L206.835289,37.6466507 L205.426601,37.6466507 L205.426601,44.1613052 L206.812161,44.1613052 L206.812161,40.2769017 L209.080779,44.1613052 L210.497876,44.1613052 L210.497876,37.6466507 L209.112317,37.6466507 L209.112317,41.671923 L209.112317,41.671923 Z M202.681763,37.6908036 L205.057609,44.1613052 L203.61423,44.1613052 L203.058114,42.5623397 L200.890417,42.5623397 L200.352172,44.1613052 L198.896178,44.1613052 L201.289895,37.6466507 L202.663891,37.6466507 L202.681763,37.6908036 Z M201.971111,39.4243303 L201.266768,41.4763887 L202.690173,41.4763887 L201.971111,39.4243303 Z M197.606282,40.7257895 C198.107733,40.869812 198.760565,41.3302637 198.760565,42.3089862 C198.760565,43.4853454 197.929019,44.1613052 196.473025,44.1613052 L193.728186,44.1613052 L193.728186,37.6466507 L196.206005,37.6466507 C197.618897,37.6466507 198.332703,38.2374585 198.332703,39.3980489 C198.332703,40.2958244 197.923763,40.6154073 197.606282,40.7257895 M196.061982,40.310542 C196.639124,40.310542 196.910349,40.0655986 196.910349,39.5441739 C196.910349,39.0479795 196.565536,38.794626 195.889576,38.794626 L195.113746,38.794626 L195.113746,40.3073883 L196.061982,40.310542 L196.061982,40.310542 Z M195.113746,43.0080737 L196.2018,43.0080737 C196.908246,43.0080737 197.238342,42.742105 197.238342,42.1681174 C197.238342,41.4669274 196.656995,41.3208023 196.166057,41.3208023 L195.110592,41.3208023 L195.113746,43.0080737 L195.113746,43.0080737 Z M188.009335,37.6466507 C190.038266,37.6466507 191.247214,38.9050082 191.247214,41.0138346 C191.247214,43.0143812 190.165468,44.1613052 188.284765,44.1613052 L186.072915,44.1613052 L186.072915,37.6466507 L188.009335,37.6466507 Z M187.460578,43.0080737 L188.271099,43.0080737 C189.268744,43.0080737 189.869013,42.2553719 189.869013,40.9938606 C189.869013,39.5336613 189.236155,38.794626 187.98831,38.794626 L187.460578,38.794626 L187.460578,43.0080737 Z M182.609016,37.6466507 L181.223456,37.6466507 L181.223456,44.1613052 L185.428493,44.1613052 L185.428493,43.0080737 L182.609016,43.0080737 L182.609016,37.6466507 Z M179.351163,42.1870401 C179.583491,42.652748 179.780077,43.0553803 180.240528,43.0553803 L180.568521,43.0553803 L180.568521,44.1276649 L180.521214,44.1402801 C180.510702,44.1402801 180.271015,44.2054581 179.847357,44.2054581 C178.752996,44.2054581 178.416593,43.4527564 178.116984,42.7873092 C177.873092,42.2406543 177.664943,41.7696901 177.089904,41.7696901 L176.480173,41.7696901 L176.480173,44.1581515 L175.092511,44.1581515 L175.092511,37.6455994 L177.400025,37.6455994 C179.086245,37.6455994 179.87469,38.3047391 179.87469,39.7207855 C179.87469,40.5912283 179.346958,41.1347294 178.825533,41.3628527 C179.058913,41.5846684 179.20714,41.8905849 179.351163,42.1870401 M176.480173,40.6921492 L177.251798,40.6921492 C178.02132,40.6921492 178.501745,40.3315672 178.501745,39.7523233 C178.501745,39.1446953 178.081241,38.794626 177.35377,38.794626 L176.477019,38.794626 L176.480173,40.6921492 L176.480173,40.6921492 Z M171.389975,37.5919852 C172.79656,37.5919852 174.303015,38.4655818 174.303015,40.9139649 C174.303015,43.3444767 172.795509,44.2138682 171.389975,44.2138682 C169.977083,44.2138682 168.47273,43.3476305 168.47273,40.9139649 C168.47273,38.4655818 169.979185,37.5919852 171.389975,37.5919852 M171.389975,43.0007149 C171.939784,43.0007149 172.863841,42.7284387 172.863841,40.9160674 C172.863841,39.0963374 171.939784,38.8251125 171.389975,38.8251125 C170.431227,38.8251125 169.905597,39.5683529 169.905597,40.9160674 C169.905597,42.263782 170.431227,43.0007149 171.389975,43.0007149 M166.706615,37.6466507 L168.275094,37.6466507 L166.407006,44.1613052 L164.838527,44.1613052 L163.701064,40.0761112 L162.548884,44.1613052 L160.980405,44.1613052 L159.110214,37.6466507 L160.724948,37.6466507 L161.820361,42.4004457 L163.132333,37.6466507 L164.298179,37.6466507 L165.569152,42.4004457 L166.706615,37.6466507 Z" id="Shape" fill="#0D2240" fill-rule="nonzero"></path>
            <g id="Clipped" transform="translate(0.000000, 0.000000)">
                <mask id="mask-2" fill="white">
                    <use xlink:href="#path-1"></use>
                </mask>
                <g id="SVGID_1_"></g>
                <rect id="Rectangle" fill="url(#radialGradient-3)" fill-rule="nonzero" mask="url(#mask-2)" x="-1.1671324e-15" y="0.00210251882" width="49.7865943" height="49.7844918"></rect>
            </g>
            <g id="Clipped" transform="translate(158.015853, 7.406123)">
                <mask id="mask-5" fill="white">
                    <use xlink:href="#path-4"></use>
                </mask>
                <g id="SVGID_4_"></g>
                <rect id="Rectangle" fill="#00AEEF" fill-rule="nonzero" mask="url(#mask-5)" x="-5.01976368" y="-5.0166099" width="12.1441487" height="19.6680123"></rect>
            </g>
            <g id="Clipped" transform="translate(161.729952, 10.115218)">
                <mask id="mask-7" fill="white">
                    <use xlink:href="#path-6"></use>
                </mask>
                <g id="SVGID_6_"></g>
                <rect id="Rectangle" fill="#00AEEF" fill-rule="nonzero" mask="url(#mask-7)" x="-5.01871242" y="-5.0166099" width="16.457466" height="16.9589168"></rect>
            </g>
            <g id="Clipped" transform="translate(169.055128, 8.410075)">
                <mask id="mask-9" fill="white">
                    <use xlink:href="#path-8"></use>
                </mask>
                <g id="SVGID_8_"></g>
                <rect id="Rectangle" fill="#00AEEF" fill-rule="nonzero" mask="url(#mask-9)" x="-5.01871242" y="-5.01766116" width="14.8511417" height="18.965771"></rect>
            </g>
            <g id="Clipped" transform="translate(174.474370, 10.217190)">
                <mask id="mask-11" fill="white">
                    <use xlink:href="#path-10"></use>
                </mask>
                <g id="SVGID_10_"></g>
                <rect id="Rectangle" fill="#00AEEF" fill-rule="nonzero" mask="url(#mask-11)" x="-5.01766116" y="-5.01871242" width="16.4553635" height="17.0608889"></rect>
            </g>
            <g id="Clipped" transform="translate(181.999285, 10.317060)">
                <mask id="mask-13" fill="white">
                    <use xlink:href="#path-12"></use>
                </mask>
                <g id="SVGID_12_"></g>
                <rect id="Rectangle" fill="#00AEEF" fill-rule="nonzero" mask="url(#mask-13)" x="-5.01766116" y="-5.01871242" width="14.3496909" height="16.8600984"></rect>
            </g>
            <g id="Clipped" transform="translate(187.317606, 10.115218)">
                <mask id="mask-15" fill="white">
                    <use xlink:href="#path-14"></use>
                </mask>
                <g id="SVGID_14_"></g>
                <rect id="Rectangle" fill="#00AEEF" fill-rule="nonzero" mask="url(#mask-15)" x="-5.01766116" y="-5.0166099" width="16.4564148" height="16.9589168"></rect>
            </g>
            <g id="Clipped" transform="translate(195.044363, 10.115218)">
                <mask id="mask-17" fill="white">
                    <use xlink:href="#path-16"></use>
                </mask>
                <g id="SVGID_16_"></g>
                <rect id="Rectangle" fill="#00AEEF" fill-rule="nonzero" mask="url(#mask-17)" x="-5.0166099" y="-5.0166099" width="16.1557546" height="17.0598377"></rect>
            </g>
            <g id="Clipped" transform="translate(201.870190, 8.410075)">
                <mask id="mask-19" fill="white">
                    <use xlink:href="#path-18"></use>
                </mask>
                <g id="SVGID_18_"></g>
                <rect id="Rectangle" fill="#00AEEF" fill-rule="nonzero" mask="url(#mask-19)" x="-5.01976368" y="-5.01766116" width="14.9531138" height="18.965771"></rect>
            </g>
            <g id="Clipped" transform="translate(207.788781, 7.406123)">
                <mask id="mask-21" fill="white">
                    <use xlink:href="#path-20"></use>
                </mask>
                <g id="SVGID_20_"></g>
                <rect id="Rectangle" fill="#00AEEF" fill-rule="nonzero" mask="url(#mask-21)" x="-5.01766116" y="-5.0166099" width="12.1430974" height="19.7689332"></rect>
            </g>
            <g id="Clipped" transform="translate(211.102351, 10.216139)">
                <mask id="mask-23" fill="white">
                    <use xlink:href="#path-22"></use>
                </mask>
                <g id="SVGID_22_"></g>
                <rect id="Rectangle" fill="#00AEEF" fill-rule="nonzero" mask="url(#mask-23)" x="-5.01976368" y="-5.01766116" width="17.0608889" height="17.0608889"></rect>
            </g>
            <g id="Clipped" transform="translate(219.430428, 10.115218)">
                <mask id="mask-25" fill="white">
                    <use xlink:href="#path-24"></use>
                </mask>
                <g id="SVGID_24_"></g>
                <rect id="Rectangle" fill="#00AEEF" fill-rule="nonzero" mask="url(#mask-25)" x="-5.01766116" y="-5.0166099" width="16.4564148" height="16.9589168"></rect>
            </g>
            <g id="Clipped" transform="translate(227.156133, 10.115218)">
                <mask id="mask-27" fill="white">
                    <use xlink:href="#path-26"></use>
                </mask>
                <g id="SVGID_26_"></g>
                <rect id="Rectangle" fill="#00AEEF" fill-rule="nonzero" mask="url(#mask-27)" x="-5.01555864" y="-5.0166099" width="16.1557546" height="17.0598377"></rect>
            </g>
            <g id="Clipped" transform="translate(234.783020, 7.406123)">
                <mask id="mask-29" fill="white">
                    <use xlink:href="#path-28"></use>
                </mask>
                <g id="SVGID_28_"></g>
                <rect id="Rectangle" fill="#00AEEF" fill-rule="nonzero" mask="url(#mask-29)" x="-5.0166099" y="-5.0166099" width="12.0421765" height="19.6680123"></rect>
            </g>
            <g id="Clipped" transform="translate(242.009377, 7.406123)">
                <mask id="mask-31" fill="white">
                    <use xlink:href="#path-30"></use>
                </mask>
                <g id="SVGID_30_"></g>
                <rect id="Rectangle" fill="#00AEEF" fill-rule="nonzero" mask="url(#mask-31)" x="-5.01766116" y="-5.0166099" width="18.2635297" height="19.6680123"></rect>
            </g>
            <g id="Clipped" transform="translate(251.141668, 10.217190)">
                <mask id="mask-33" fill="white">
                    <use xlink:href="#path-32"></use>
                </mask>
                <g id="SVGID_32_"></g>
                <rect id="Rectangle" fill="#00AEEF" fill-rule="nonzero" mask="url(#mask-33)" x="-5.01871242" y="-5.01871242" width="16.457466" height="17.0608889"></rect>
            </g>
            <g id="Clipped" transform="translate(257.965393, 10.416929)">
                <mask id="mask-35" fill="white">
                    <use xlink:href="#path-34"></use>
                </mask>
                <g id="SVGID_34_"></g>
                <rect id="Rectangle" fill="#00AEEF" fill-rule="nonzero" mask="url(#mask-35)" x="-5.0166099" y="-5.01766116" width="17.0608889" height="16.7591775"></rect>
            </g>
            <g id="Clipped" transform="translate(265.391489, 10.217190)">
                <mask id="mask-37" fill="white">
                    <use xlink:href="#path-36"></use>
                </mask>
                <g id="SVGID_36_"></g>
                <rect id="Rectangle" fill="#00AEEF" fill-rule="nonzero" mask="url(#mask-37)" x="-5.01766116" y="-5.01871242" width="16.4553635" height="17.0608889"></rect>
            </g>
            <g id="Clipped" transform="translate(273.118246, 7.406123)">
                <mask id="mask-39" fill="white">
                    <use xlink:href="#path-38"></use>
                </mask>
                <g id="SVGID_38_"></g>
                <rect id="Rectangle" fill="#00AEEF" fill-rule="nonzero" mask="url(#mask-39)" x="-5.0166099" y="-5.0166099" width="12.0411253" height="19.6680123"></rect>
            </g>
            <g id="Clipped" transform="translate(276.530634, 10.216139)">
                <mask id="mask-41" fill="white">
                    <use xlink:href="#path-40"></use>
                </mask>
                <g id="SVGID_40_"></g>
                <rect id="Rectangle" fill="#00AEEF" fill-rule="nonzero" mask="url(#mask-41)" x="-5.0166099" y="-5.01766116" width="17.0587864" height="17.0608889"></rect>
            </g>
            <g id="Clipped" transform="translate(284.658971, 10.115218)">
                <mask id="mask-43" fill="white">
                    <use xlink:href="#path-42"></use>
                </mask>
                <g id="SVGID_42_"></g>
                <rect id="Rectangle" fill="#00AEEF" fill-rule="nonzero" mask="url(#mask-43)" x="-5.01766116" y="-5.0166099" width="17.0598377" height="19.4672217"></rect>
            </g>
            <g id="Clipped" transform="translate(292.988100, 10.115218)">
                <mask id="mask-45" fill="white">
                    <use xlink:href="#path-44"></use>
                </mask>
                <g id="SVGID_44_"></g>
                <rect id="Rectangle" fill="#00AEEF" fill-rule="nonzero" mask="url(#mask-45)" x="-5.01766116" y="-5.0166099" width="20.8717043" height="16.9589168"></rect>
            </g>
            <g id="Clipped" transform="translate(305.131197, 10.217190)">
                <mask id="mask-47" fill="white">
                    <use xlink:href="#path-46"></use>
                </mask>
                <g id="SVGID_46_"></g>
                <rect id="Rectangle" fill="#00AEEF" fill-rule="nonzero" mask="url(#mask-47)" x="-5.01766116" y="-5.01871242" width="16.4564148" height="17.0608889"></rect>
            </g>
            <g id="Clipped" transform="translate(312.857954, 10.115218)">
                <mask id="mask-49" fill="white">
                    <use xlink:href="#path-48"></use>
                </mask>
                <g id="SVGID_48_"></g>
                <rect id="Rectangle" fill="#00AEEF" fill-rule="nonzero" mask="url(#mask-49)" x="-5.01871242" y="-5.0166099" width="16.457466" height="16.9589168"></rect>
            </g>
            <g id="Clipped" transform="translate(320.084311, 8.410075)">
                <mask id="mask-51" fill="white">
                    <use xlink:href="#path-50"></use>
                </mask>
                <g id="SVGID_50_"></g>
                <rect id="Rectangle" fill="#00AEEF" fill-rule="nonzero" mask="url(#mask-51)" x="-5.02081494" y="-5.01766116" width="14.9531138" height="18.965771"></rect>
            </g>
            <g id="Clipped" transform="translate(157.413481, 20.451201)">
                <mask id="mask-53" fill="white">
                    <use xlink:href="#path-52"></use>
                </mask>
                <g id="SVGID_52_"></g>
                <rect id="Rectangle" fill="#00AEEF" fill-rule="nonzero" mask="url(#mask-53)" x="-5.01766116" y="-5.0166099" width="19.2664312" height="19.6690635"></rect>
            </g>
            <g id="Clipped" transform="translate(167.248013, 23.261217)">
                <mask id="mask-55" fill="white">
                    <use xlink:href="#path-54"></use>
                </mask>
                <g id="SVGID_54_"></g>
                <rect id="Rectangle" fill="#00AEEF" fill-rule="nonzero" mask="url(#mask-55)" x="-5.01766116" y="-5.01766116" width="15.9560153" height="17.0598377"></rect>
            </g>
            <g id="Clipped" transform="translate(173.971868, 23.261217)">
                <mask id="mask-57" fill="white">
                    <use xlink:href="#path-56"></use>
                </mask>
                <g id="SVGID_56_"></g>
                <rect id="Rectangle" fill="#00AEEF" fill-rule="nonzero" mask="url(#mask-57)" x="-5.01766116" y="-5.01766116" width="15.954964" height="17.0598377"></rect>
            </g>
            <g id="Clipped" transform="translate(180.693621, 23.261217)">
                <mask id="mask-59" fill="white">
                    <use xlink:href="#path-58"></use>
                </mask>
                <g id="SVGID_58_"></g>
                <rect id="Rectangle" fill="#00AEEF" fill-rule="nonzero" mask="url(#mask-59)" x="-5.0166099" y="-5.01766116" width="17.0608889" height="17.0598377"></rect>
            </g>
            <g id="Clipped" transform="translate(188.522350, 23.260166)">
                <mask id="mask-61" fill="white">
                    <use xlink:href="#path-60"></use>
                </mask>
                <g id="SVGID_60_"></g>
                <rect id="Rectangle" fill="#00AEEF" fill-rule="nonzero" mask="url(#mask-61)" x="-5.0166099" y="-5.0166099" width="16.0548337" height="17.0598377"></rect>
            </g>
            <g id="Clipped" transform="translate(195.847525, 20.451201)">
                <mask id="mask-63" fill="white">
                    <use xlink:href="#path-62"></use>
                </mask>
                <g id="SVGID_62_"></g>
                <rect id="Rectangle" fill="#00AEEF" fill-rule="nonzero" mask="url(#mask-63)" x="-5.0166099" y="-5.0166099" width="12.1420462" height="19.7699844"></rect>
            </g>
            <g id="Clipped" transform="translate(199.158992, 23.161347)">
                <mask id="mask-65" fill="white">
                    <use xlink:href="#path-64"></use>
                </mask>
                <g id="SVGID_64_"></g>
                <rect id="Rectangle" fill="#00AEEF" fill-rule="nonzero" mask="url(#mask-65)" x="-5.0166099" y="-5.0166099" width="16.1557546" height="17.0598377"></rect>
            </g>
            <g id="Clipped" transform="translate(205.883899, 21.456205)">
                <mask id="mask-67" fill="white">
                    <use xlink:href="#path-66"></use>
                </mask>
                <g id="SVGID_66_"></g>
                <rect id="Rectangle" fill="#00AEEF" fill-rule="nonzero" mask="url(#mask-67)" x="-5.01871242" y="-5.01871242" width="14.9531138" height="18.9668223"></rect>
            </g>
            <g id="Clipped" transform="translate(211.902359, 20.451201)">
                <mask id="mask-69" fill="white">
                    <use xlink:href="#path-68"></use>
                </mask>
                <g id="SVGID_68_"></g>
                <rect id="Rectangle" fill="#00AEEF" fill-rule="nonzero" mask="url(#mask-69)" x="-5.0166099" y="-5.0166099" width="12.1430974" height="19.7699844"></rect>
            </g>
            <g id="Clipped" transform="translate(215.215929, 23.261217)">
                <mask id="mask-71" fill="white">
                    <use xlink:href="#path-70"></use>
                </mask>
                <g id="SVGID_70_"></g>
                <rect id="Rectangle" fill="#00AEEF" fill-rule="nonzero" mask="url(#mask-71)" x="-5.01766116" y="-5.01766116" width="17.0608889" height="17.0598377"></rect>
            </g>
            <g id="Clipped" transform="translate(223.546108, 23.162399)">
                <mask id="mask-73" fill="white">
                    <use xlink:href="#path-72"></use>
                </mask>
                <g id="SVGID_72_"></g>
                <rect id="Rectangle" fill="#00AEEF" fill-rule="nonzero" mask="url(#mask-73)" x="-5.01871242" y="-5.01766116" width="16.457466" height="16.9589168"></rect>
            </g>
        </g>
    </g>
</svg>